<?xml version="1.0" encoding="UTF-8" standalone="no"?>
<!DOCTYPE svg PUBLIC "-//W3C//DTD SVG 1.1//EN" "http://www.w3.org/Graphics/SVG/1.1/DTD/svg11.dtd">
<svg width="100%" height="100%" viewBox="0 0 159 220" version="1.1" xmlns="http://www.w3.org/2000/svg" xmlns:xlink="http://www.w3.org/1999/xlink" xml:space="preserve" xmlns:serif="http://www.serif.com/" style="fill-rule:evenodd;clip-rule:evenodd;stroke-linejoin:round;stroke-miterlimit:2;">
    <g id="Artboard1" transform="matrix(1,0,0,1,-422.562,-53.0071)">
        <rect x="422.562" y="53.007" width="158.527" height="219.862" style="fill:none;"/>
        <clipPath id="_clip1">
            <rect x="422.562" y="53.007" width="158.527" height="219.862"/>
        </clipPath>
        <g clip-path="url(#_clip1)">
            <g transform="matrix(1,0,0,1,0.561689,0.0071069)">
                <rect x="0" y="0" width="1920" height="1078" style="fill:white;fill-rule:nonzero;"/>
                <path d="M520.322,104.031C519.789,104.031 519.255,104.018 518.718,103.989C510.277,103.549 505.161,99.828 504.947,99.669L505.367,99.102C505.418,99.14 510.555,102.868 518.797,103.286C532.583,103.986 544.344,95.04 551.778,87.411L552.284,87.903C545.027,95.35 533.695,104.031 520.322,104.031Z" style="fill:rgb(244,244,244);fill-rule:nonzero;"/>
                <path d="M455.301,99.434C455.301,99.434 505.422,37.11 564.789,105.119C564.789,105.119 583.766,142.861 561.382,165.753C538.999,188.644 439.73,161.896 439.73,161.896C439.73,161.896 415.885,103.959 455.301,99.434Z" style="fill:rgb(0,45,122);fill-rule:nonzero;"/>
                <path d="M459.881,107.434C459.446,107.434 459.025,107.204 458.799,106.798C458.756,106.72 458.616,106.464 458.403,106.059C454.335,99.02 441.893,92.565 441.764,92.498C441.157,92.187 440.918,91.442 441.23,90.834C441.542,90.228 442.286,89.989 442.894,90.3C443.285,90.502 449.706,93.834 455.012,98.477C452.776,92.517 450.969,84.831 454.248,80.584C454.665,80.044 455.44,79.944 455.981,80.362C456.521,80.779 456.621,81.554 456.204,82.094C452.451,86.955 457.711,99.445 460.532,104.806C460.695,105.086 460.847,105.367 460.987,105.65C461.285,106.251 461.048,106.98 460.454,107.292C460.271,107.389 460.074,107.434 459.881,107.434Z" style="fill:rgb(0,45,122);fill-rule:nonzero;"/>
                <path d="M523.507,224.502C507.735,229.748 488.341,221.187 478.952,216.104C479.674,233.794 477.469,256.87 462.09,264.397L540.458,264.397C527.438,257.873 523.861,240.521 523.507,224.502Z" style="fill:rgb(246,199,171);fill-rule:nonzero;"/>
                <path d="M523.507,224.396C523.162,208.71 525.908,194.642 525.908,194.642L513.526,194.642L477.049,196.981C477.617,200.489 478.611,207.576 478.952,215.937C488.341,221.02 507.735,229.642 523.507,224.396Z" style="fill:rgb(170,147,132);fill-rule:nonzero;"/>
                <path d="M451.499,148.013C451.499,184.471 474.258,214.026 502.333,214.026C530.408,214.026 553.167,184.471 553.167,148.013C553.167,111.555 530.408,81.999 502.333,81.999C474.258,81.999 451.499,111.555 451.499,148.013Z" style="fill:rgb(246,199,171);fill-rule:nonzero;"/>
                <path d="M439.151,169.122C439.151,176.592 444.926,182.647 452.049,182.647C459.171,182.647 464.946,176.592 464.946,169.122C464.946,161.651 459.171,155.597 452.049,155.597C444.926,155.597 439.151,161.651 439.151,169.122Z" style="fill:rgb(246,199,171);fill-rule:nonzero;"/>
                <path d="M539.407,168.416C539.407,175.886 545.181,181.941 552.304,181.941C559.427,181.941 565.202,175.886 565.202,168.416C565.202,160.945 559.427,154.89 552.304,154.89C545.181,154.89 539.407,160.945 539.407,168.416Z" style="fill:rgb(246,199,171);fill-rule:nonzero;"/>
                <path d="M506.569,172.059L499.862,172.059C499.102,172.059 498.478,171.437 498.451,170.676L497.215,136.024C497.188,135.245 497.797,134.585 498.576,134.558C499.344,134.536 500.01,135.063 500.037,135.843L501.225,169.047L506.569,169.047C507.349,169.047 507.981,169.772 507.981,170.553C507.981,171.332 507.349,172.059 506.569,172.059Z" style="fill:rgb(239,142,121);fill-rule:nonzero;"/>
                <path d="M501.803,186.452C501.637,186.452 501.471,186.447 501.304,186.438C495.788,186.145 492.252,181.03 492.105,180.813C491.667,180.167 491.834,179.289 492.479,178.851C493.124,178.412 494.001,178.58 494.439,179.224C494.5,179.31 497.382,183.411 501.47,183.619C504.111,183.752 506.794,182.234 509.447,179.105C509.952,178.511 510.842,178.438 511.438,178.941C512.031,179.446 512.104,180.337 511.601,180.932C508.494,184.597 505.2,186.452 501.803,186.452Z" style="fill:rgb(239,142,121);fill-rule:nonzero;"/>
                <path d="M480.799,152.425C480.799,155.155 482.262,157.367 484.064,157.367C485.868,157.367 487.33,155.155 487.33,152.425C487.33,149.695 485.868,147.483 484.064,147.483C482.262,147.483 480.799,149.695 480.799,152.425Z" style="fill:rgb(28,32,57);fill-rule:nonzero;"/>
                <path d="M513.629,151.366C513.629,154.096 515.091,156.309 516.895,156.309C518.698,156.309 520.159,154.096 520.159,151.366C520.159,148.637 518.698,146.424 516.895,146.424C515.091,146.424 513.629,148.637 513.629,151.366Z" style="fill:rgb(28,32,57);fill-rule:nonzero;"/>
                <path d="M455.233,104.319C455.233,104.319 475.896,41.544 544.771,77.654C544.771,77.654 551.659,78.209 558.055,75.432L554.119,85.388C554.119,85.388 560.515,88.197 572.321,73.204C572.321,73.204 574.781,120.566 517.221,116.054L522.141,122.606C522.141,122.606 478.355,132.007 457.692,111.496L455.233,104.319Z" style="fill:rgb(0,45,122);fill-rule:nonzero;"/>
                <path d="M561.809,155.243L547.566,162.264C547.566,162.264 537.37,115.721 545.147,109.025C552.925,102.33 560.397,119.804 560.397,119.804L561.809,155.243Z" style="fill:rgb(0,45,122);fill-rule:nonzero;"/>
                <path d="M498.915,116.825C487.211,116.825 478.194,113.957 472.236,111.204C463.985,107.392 459.643,102.958 459.6,102.914L460.108,102.423C460.15,102.466 464.421,106.821 472.564,110.578C479.991,114.004 492.233,117.61 508.553,115.483L503.68,108.473L504.477,108.582C504.605,108.599 517.541,110.322 531.529,108.47C539.726,107.383 546.674,105.3 552.18,102.277C559.031,98.516 563.656,93.278 565.927,86.709L566.594,86.94C564.264,93.681 559.526,99.051 552.513,102.899C546.928,105.964 539.895,108.074 531.608,109.171C519.508,110.772 508.194,109.716 505.168,109.376L509.791,116.027L509.221,116.106C505.586,116.606 502.147,116.825 498.915,116.825Z" style="fill:rgb(244,244,244);fill-rule:nonzero;"/>
                <path d="M510.564,141.917L534.62,144.011L534.62,138.481L513.794,134.363L510.564,141.917Z" style="fill:rgb(28,32,57);fill-rule:nonzero;"/>
                <path d="M489.998,142.271L465.867,144.363L465.867,138.834L486.729,134.716L489.998,142.271Z" style="fill:rgb(28,32,57);fill-rule:nonzero;"/>
                <path d="M454.941,175.897C454.755,175.897 454.575,175.799 454.479,175.624C453.264,173.435 451.945,172.313 450.559,172.29C448.108,172.249 446.061,175.605 446.041,175.64C445.94,175.808 445.763,175.908 445.559,175.896C445.364,175.887 445.189,175.77 445.106,175.592C443.025,171.132 442.733,167.433 444.239,164.595C446.287,160.737 450.869,159.965 451.063,159.934C451.349,159.888 451.622,160.084 451.668,160.372C451.715,160.66 451.519,160.933 451.23,160.979C451.188,160.986 446.964,161.708 445.171,165.1C443.927,167.45 444.101,170.539 445.687,174.29C446.554,173.146 448.374,171.188 450.576,171.231C452.369,171.261 453.993,172.565 455.404,175.111C455.546,175.367 455.454,175.689 455.198,175.831C455.116,175.876 455.028,175.897 454.941,175.897Z" style="fill:rgb(239,142,121);fill-rule:nonzero;"/>
                <path d="M549.727,175.544C549.641,175.544 549.552,175.522 549.471,175.478C549.215,175.336 549.123,175.102 549.265,174.846C550.676,172.301 552.301,171.055 554.093,171.055L554.153,171.055C556.342,171.055 558.123,172.891 558.982,174.025C560.569,170.271 560.742,167.135 559.494,164.782C557.691,161.386 553.481,160.655 553.439,160.648C553.15,160.602 552.954,160.319 553,160.031C553.045,159.742 553.319,159.54 553.606,159.586C553.8,159.617 558.383,160.387 560.43,164.245C561.935,167.082 561.643,170.78 559.562,175.24C559.479,175.417 559.305,175.534 559.11,175.544C558.909,175.551 558.729,175.455 558.628,175.287C558.608,175.253 556.567,171.912 554.107,171.938C552.723,171.961 551.404,173.083 550.191,175.271C550.094,175.446 549.914,175.544 549.727,175.544Z" style="fill:rgb(239,142,121);fill-rule:nonzero;"/>
                <path d="M441.262,157.008L455.504,164.029C455.504,164.029 465.7,117.485 457.923,110.79C450.145,104.096 442.674,121.568 442.674,121.568L441.262,157.008Z" style="fill:rgb(0,45,122);fill-rule:nonzero;"/>
                <path d="M474.74,133.539C463.418,133.539 454.208,142.75 454.208,154.071C454.208,165.394 463.418,174.604 474.74,174.604C486.062,174.604 495.273,165.394 495.273,154.071C495.273,142.75 486.062,133.539 474.74,133.539ZM474.74,176.017C462.64,176.017 452.795,166.172 452.795,154.071C452.795,141.972 462.64,132.127 474.74,132.127C486.84,132.127 496.685,141.972 496.685,154.071C496.685,166.172 486.84,176.017 474.74,176.017Z" style="fill:rgb(244,244,244);fill-rule:nonzero;"/>
                <path d="M527.692,133.539C516.37,133.539 507.159,142.75 507.159,154.071C507.159,165.394 516.37,174.604 527.692,174.604C539.014,174.604 548.225,165.394 548.225,154.071C548.225,142.75 539.014,133.539 527.692,133.539ZM527.692,176.017C515.591,176.017 505.747,166.172 505.747,154.071C505.747,141.972 515.591,132.127 527.692,132.127C539.792,132.127 549.637,141.972 549.637,154.071C549.637,166.172 539.792,176.017 527.692,176.017Z" style="fill:rgb(244,244,244);fill-rule:nonzero;"/>
                <rect x="495.978" y="153.992" width="10.538" height="1.505" style="fill:rgb(244,244,244);fill-rule:nonzero;"/>
                <path d="M516.439,102.266C515.906,102.266 515.374,102.252 514.835,102.224C506.393,101.784 501.277,98.063 501.064,97.905L501.484,97.337C501.535,97.374 506.672,101.104 514.914,101.521C528.697,102.22 540.461,93.274 547.895,85.645L548.4,86.138C541.144,93.585 529.812,102.266 516.439,102.266Z" style="fill:rgb(244,244,244);fill-rule:nonzero;"/>
            </g>
        </g>
    </g>
</svg>
