<?xml version="1.0" encoding="UTF-8" standalone="no"?>
<!DOCTYPE svg PUBLIC "-//W3C//DTD SVG 1.1//EN" "http://www.w3.org/Graphics/SVG/1.1/DTD/svg11.dtd">
<svg width="100%" height="100%" viewBox="0 0 160 213" version="1.1" xmlns="http://www.w3.org/2000/svg" xmlns:xlink="http://www.w3.org/1999/xlink" xml:space="preserve" xmlns:serif="http://www.serif.com/" style="fill-rule:evenodd;clip-rule:evenodd;stroke-linejoin:round;stroke-miterlimit:2;">
    <g id="Artboard1" transform="matrix(1,0,0,1,-815.405,-56.9914)">
        <rect x="815.405" y="56.991" width="159.709" height="212.295" style="fill:none;"/>
        <clipPath id="_clip1">
            <rect x="815.405" y="56.991" width="159.709" height="212.295"/>
        </clipPath>
        <g clip-path="url(#_clip1)">
            <g transform="matrix(1,0,0,1,0.405298,0.991397)">
                <rect x="0" y="0" width="1920" height="1078" style="fill:white;fill-rule:nonzero;"/>
                <path d="M828.103,149.307C828.103,160.42 837.112,169.429 848.225,169.429C859.338,169.429 868.347,160.42 868.347,149.307C868.347,138.193 859.338,129.185 848.225,129.185C837.112,129.185 828.103,138.193 828.103,149.307Z" style="fill:rgb(66,46,42);fill-rule:nonzero;"/>
                <path d="M843.636,187.432C843.636,198.545 852.645,207.554 863.757,207.554C874.871,207.554 883.879,198.545 883.879,187.432C883.879,176.319 874.871,167.311 863.757,167.311C852.645,167.311 843.636,176.319 843.636,187.432Z" style="fill:rgb(66,46,42);fill-rule:nonzero;"/>
                <path d="M909.296,184.607C909.296,195.721 918.305,204.729 929.417,204.729C940.531,204.729 949.54,195.721 949.54,184.607C949.54,173.494 940.531,164.486 929.417,164.486C918.305,164.486 909.296,173.494 909.296,184.607Z" style="fill:rgb(66,46,42);fill-rule:nonzero;"/>
                <path d="M822.455,125.654C822.455,136.768 831.464,145.776 842.577,145.776C853.69,145.776 862.698,136.768 862.698,125.654C862.698,114.542 853.69,105.533 842.577,105.533C831.464,105.533 822.455,114.542 822.455,125.654Z" style="fill:rgb(66,46,42);fill-rule:nonzero;"/>
                <path d="M833.399,99.533C833.399,110.645 842.408,119.653 853.52,119.653C864.633,119.653 873.642,110.645 873.642,99.533C873.642,88.419 864.633,79.411 853.52,79.411C842.408,79.411 833.399,88.419 833.399,99.533Z" style="fill:rgb(66,46,42);fill-rule:nonzero;"/>
                <path d="M862.698,83.647C862.698,94.76 871.707,103.769 882.82,103.769C893.933,103.769 902.942,94.76 902.942,83.647C902.942,72.534 893.933,63.525 882.82,63.525C871.707,63.525 862.698,72.534 862.698,83.647Z" style="fill:rgb(66,46,42);fill-rule:nonzero;"/>
                <path d="M896.587,83.647C896.587,94.76 905.596,103.769 916.709,103.769C927.822,103.769 936.831,94.76 936.831,83.647C936.831,72.534 927.822,63.525 916.709,63.525C905.596,63.525 896.587,72.534 896.587,83.647Z" style="fill:rgb(66,46,42);fill-rule:nonzero;"/>
                <path d="M916.709,103.769C916.709,114.881 925.718,123.89 936.831,123.89C947.944,123.89 956.953,114.881 956.953,103.769C956.953,92.656 947.944,83.647 936.831,83.647C925.718,83.647 916.709,92.656 916.709,103.769Z" style="fill:rgb(66,46,42);fill-rule:nonzero;"/>
                <path d="M857.403,202.964C857.403,209.203 862.461,214.261 868.7,214.261C874.938,214.261 879.996,209.203 879.996,202.964C879.996,196.725 874.938,191.668 868.7,191.668C862.461,191.668 857.403,196.725 857.403,202.964Z" style="fill:rgb(66,46,42);fill-rule:nonzero;"/>
                <path d="M912.827,203.317C912.827,209.557 917.884,214.614 924.123,214.614C930.362,214.614 935.419,209.557 935.419,203.317C935.419,197.078 930.362,192.021 924.123,192.021C917.884,192.021 912.827,197.078 912.827,203.317Z" style="fill:rgb(66,46,42);fill-rule:nonzero;"/>
                <path d="M929.771,127.066C929.771,138.18 938.78,147.188 949.893,147.188C961.006,147.188 970.014,138.18 970.014,127.066C970.014,115.953 961.006,106.945 949.893,106.945C938.78,106.945 929.771,115.953 929.771,127.066Z" style="fill:rgb(66,46,42);fill-rule:nonzero;"/>
                <path d="M924.123,147.188C924.123,158.302 933.131,167.311 944.244,167.311C955.357,167.311 964.366,158.302 964.366,147.188C964.366,136.075 955.357,127.066 944.244,127.066C933.131,127.066 924.123,136.075 924.123,147.188Z" style="fill:rgb(66,46,42);fill-rule:nonzero;"/>
                <path d="M917.762,224.576C901.99,229.822 882.595,221.182 873.207,216.098C873.929,233.788 871.723,257.286 856.345,264.313L934.713,264.313C921.692,258.29 918.115,240.596 917.762,224.576Z" style="fill:rgb(157,105,98);fill-rule:nonzero;"/>
                <path d="M917.762,224.721C917.417,209.035 920.162,195.058 920.162,195.058L907.782,195.058L871.304,197.308C871.872,200.814 872.866,207.902 873.207,216.262C882.595,221.346 901.99,229.967 917.762,224.721Z" style="fill:rgb(135,93,87);fill-rule:nonzero;"/>
                <path d="M845.754,148.247C845.754,184.706 868.513,214.261 896.587,214.261C924.663,214.261 947.421,184.706 947.421,148.247C947.421,111.789 924.663,82.235 896.587,82.235C868.513,82.235 845.754,111.789 845.754,148.247Z" style="fill:rgb(157,105,98);fill-rule:nonzero;"/>
                <path d="M832.7,169.357C832.7,176.827 838.474,182.883 845.598,182.883C852.72,182.883 858.495,176.827 858.495,169.357C858.495,161.887 852.72,155.831 845.598,155.831C838.474,155.831 832.7,161.887 832.7,169.357Z" style="fill:rgb(157,105,98);fill-rule:nonzero;"/>
                <path d="M934.368,169.357C934.368,176.827 940.142,182.883 947.265,182.883C954.387,182.883 960.163,176.827 960.163,169.357C960.163,161.887 954.387,155.831 947.265,155.831C940.142,155.831 934.368,161.887 934.368,169.357Z" style="fill:rgb(157,105,98);fill-rule:nonzero;"/>
                <path d="M848.137,175.779C847.951,175.779 847.77,175.832 847.674,175.657C846.459,173.468 845.141,172.475 843.754,172.475L843.71,172.475C841.268,172.475 839.256,175.64 839.236,175.673C839.136,175.841 838.955,175.862 838.754,175.854C838.56,175.844 838.385,175.689 838.302,175.512C836.221,171.052 835.929,167.333 837.435,164.496C839.482,160.638 844.064,159.855 844.259,159.824C844.545,159.778 844.818,159.971 844.864,160.259C844.911,160.548 844.715,160.816 844.426,160.862C844.383,160.869 840.16,161.591 838.366,164.982C837.123,167.333 837.297,170.35 838.882,174.101C839.742,172.967 841.522,170.969 843.711,170.969L843.772,170.969C845.563,170.969 847.188,172.376 848.6,174.92C848.742,175.176 848.649,175.535 848.394,175.677C848.312,175.722 848.224,175.779 848.137,175.779Z" style="fill:rgb(135,93,87);fill-rule:nonzero;"/>
                <path d="M944.335,174.72C944.248,174.72 944.16,174.698 944.079,174.653C943.823,174.512 943.73,174.145 943.872,173.889C945.284,171.345 946.908,169.966 948.701,169.966L948.761,169.966C950.95,169.966 952.73,171.935 953.59,173.069C955.177,169.313 955.35,166.244 954.102,163.893C952.299,160.495 948.089,159.798 948.047,159.791C947.758,159.745 947.561,159.479 947.607,159.189C947.654,158.901 947.927,158.707 948.214,158.753C948.408,158.784 952.99,159.56 955.037,163.417C956.543,166.254 956.25,169.954 954.17,174.413C954.087,174.591 953.913,174.709 953.718,174.719C953.518,174.733 953.336,174.559 953.236,174.391C953.216,174.357 951.196,170.969 948.761,170.969L948.715,170.969C947.33,170.969 946.012,172.187 944.798,174.375C944.702,174.55 944.521,174.72 944.335,174.72Z" style="fill:rgb(135,93,87);fill-rule:nonzero;"/>
                <path d="M901.177,166.452L894.469,166.452C893.712,166.452 893.089,165.931 893.059,165.173L891.823,134.452C891.792,133.673 892.398,133.034 893.178,133.003C893.938,132.972 894.613,133.669 894.645,134.448L895.826,163.943L901.177,163.943C901.957,163.943 902.589,164.418 902.589,165.198C902.589,165.978 901.957,166.452 901.177,166.452Z" style="fill:rgb(135,93,87);fill-rule:nonzero;"/>
                <path d="M895.705,186.333C895.539,186.333 895.373,186.329 895.206,186.32C889.689,186.026 886.154,180.912 886.006,180.694C885.568,180.05 885.736,179.171 886.381,178.732C887.025,178.295 887.902,178.462 888.341,179.105C888.401,179.191 891.284,183.293 895.372,183.501C898.01,183.63 900.696,182.116 903.349,178.987C903.853,178.393 904.744,178.319 905.339,178.824C905.934,179.328 906.007,180.219 905.503,180.814C902.396,184.479 899.102,186.333 895.705,186.333Z" style="fill:rgb(135,93,87);fill-rule:nonzero;"/>
                <path d="M873.642,152.307C873.642,155.037 875.104,157.249 876.907,157.249C878.711,157.249 880.173,155.037 880.173,152.307C880.173,149.577 878.711,147.365 876.907,147.365C875.104,147.365 873.642,149.577 873.642,152.307Z" style="fill:rgb(28,32,57);fill-rule:nonzero;"/>
                <path d="M908.59,151.248C908.59,153.978 910.052,156.19 911.855,156.19C913.659,156.19 915.121,153.978 915.121,151.248C915.121,148.519 913.659,146.306 911.855,146.306C910.052,146.306 908.59,148.519 908.59,151.248Z" style="fill:rgb(28,32,57);fill-rule:nonzero;"/>
                <path d="M908.497,138.975L932.7,141.067L932.7,135.539L911.802,131.421L908.497,138.975Z" style="fill:rgb(66,46,42);fill-rule:nonzero;"/>
                <path d="M882.95,139.681L858.929,141.774L858.929,136.245L879.736,132.127L882.95,139.681Z" style="fill:rgb(66,46,42);fill-rule:nonzero;"/>
                <path d="M831.281,144.718C831.281,150.956 836.338,156.014 842.577,156.014C848.816,156.014 853.874,150.956 853.874,144.718C853.874,138.479 848.816,133.421 842.577,133.421C836.338,133.421 831.281,138.479 831.281,144.718Z" style="fill:rgb(66,46,42);fill-rule:nonzero;"/>
                <path d="M834.458,125.654C834.458,131.894 839.515,136.951 845.754,136.951C851.993,136.951 857.05,131.894 857.05,125.654C857.05,119.416 851.993,114.358 845.754,114.358C839.515,114.358 834.458,119.416 834.458,125.654Z" style="fill:rgb(66,46,42);fill-rule:nonzero;"/>
                <path d="M849.284,110.828C849.284,117.067 854.342,122.125 860.581,122.125C866.819,122.125 871.877,117.067 871.877,110.828C871.877,104.589 866.819,99.533 860.581,99.533C854.342,99.533 849.284,104.589 849.284,110.828Z" style="fill:rgb(66,46,42);fill-rule:nonzero;"/>
                <path d="M868.7,106.945C868.7,113.185 873.757,118.241 879.996,118.241C886.235,118.241 891.292,113.185 891.292,106.945C891.292,100.706 886.235,95.649 879.996,95.649C873.757,95.649 868.7,100.706 868.7,106.945Z" style="fill:rgb(66,46,42);fill-rule:nonzero;"/>
                <path d="M888.468,105.533C888.468,111.772 893.526,116.829 899.765,116.829C906.004,116.829 911.061,111.772 911.061,105.533C911.061,99.294 906.004,94.237 899.765,94.237C893.526,94.237 888.468,99.294 888.468,105.533Z" style="fill:rgb(66,46,42);fill-rule:nonzero;"/>
                <path d="M908.943,106.945C908.943,113.185 914,118.241 920.239,118.241C926.479,118.241 931.536,113.185 931.536,106.945C931.536,100.706 926.479,95.649 920.239,95.649C914,95.649 908.943,100.706 908.943,106.945Z" style="fill:rgb(66,46,42);fill-rule:nonzero;"/>
                <path d="M927.653,116.829C927.653,123.068 932.71,128.126 938.949,128.126C945.188,128.126 950.246,123.068 950.246,116.829C950.246,110.59 945.188,105.533 938.949,105.533C932.71,105.533 927.653,110.59 927.653,116.829Z" style="fill:rgb(66,46,42);fill-rule:nonzero;"/>
                <path d="M936.125,134.833C936.125,141.072 941.183,146.13 947.421,146.13C953.661,146.13 958.718,141.072 958.718,134.833C958.718,128.594 953.661,123.537 947.421,123.537C941.183,123.537 936.125,128.594 936.125,134.833Z" style="fill:rgb(66,46,42);fill-rule:nonzero;"/>
                <path d="M938.596,144.718C938.596,150.956 943.654,156.014 949.893,156.014C956.131,156.014 961.188,150.956 961.188,144.718C961.188,138.479 956.131,133.421 949.893,133.421C943.654,133.421 938.596,138.479 938.596,144.718Z" style="fill:rgb(66,46,42);fill-rule:nonzero;"/>
                <path d="M923.417,99.533C923.417,105.771 928.474,110.828 934.713,110.828C940.952,110.828 946.009,105.771 946.009,99.533C946.009,93.293 940.952,88.236 934.713,88.236C928.474,88.236 923.417,93.293 923.417,99.533Z" style="fill:rgb(66,46,42);fill-rule:nonzero;"/>
                <path d="M908.943,91.06C908.943,97.299 914,102.355 920.239,102.355C926.479,102.355 931.536,97.299 931.536,91.06C931.536,84.821 926.479,79.763 920.239,79.763C914,79.763 908.943,84.821 908.943,91.06Z" style="fill:rgb(66,46,42);fill-rule:nonzero;"/>
                <path d="M897.646,88.236C897.646,94.475 902.704,99.533 908.943,99.533C915.182,99.533 920.239,94.475 920.239,88.236C920.239,81.997 915.182,76.94 908.943,76.94C902.704,76.94 897.646,81.997 897.646,88.236Z" style="fill:rgb(66,46,42);fill-rule:nonzero;"/>
                <path d="M884.232,88.236C884.232,94.475 889.29,99.533 895.528,99.533C901.768,99.533 906.825,94.475 906.825,88.236C906.825,81.997 901.768,76.94 895.528,76.94C889.29,76.94 884.232,81.997 884.232,88.236Z" style="fill:rgb(66,46,42);fill-rule:nonzero;"/>
                <path d="M877.172,91.06C877.172,97.299 882.229,102.355 888.468,102.355C894.708,102.355 899.765,97.299 899.765,91.06C899.765,84.821 894.708,79.763 888.468,79.763C882.229,79.763 877.172,84.821 877.172,91.06Z" style="fill:rgb(66,46,42);fill-rule:nonzero;"/>
                <path d="M865.523,94.237C865.523,100.476 870.581,105.533 876.819,105.533C883.058,105.533 888.116,100.476 888.116,94.237C888.116,87.998 883.058,82.941 876.819,82.941C870.581,82.941 865.523,87.998 865.523,94.237Z" style="fill:rgb(66,46,42);fill-rule:nonzero;"/>
                <path d="M859.521,95.649C859.521,101.888 864.579,106.945 870.817,106.945C877.057,106.945 882.114,101.888 882.114,95.649C882.114,89.411 877.057,84.353 870.817,84.353C864.579,84.353 859.521,89.411 859.521,95.649Z" style="fill:rgb(66,46,42);fill-rule:nonzero;"/>
                <path d="M904.001,95.649C904.001,101.888 909.059,106.945 915.297,106.945C921.536,106.945 926.594,101.888 926.594,95.649C926.594,89.411 921.536,84.353 915.297,84.353C909.059,84.353 904.001,89.411 904.001,95.649Z" style="fill:rgb(66,46,42);fill-rule:nonzero;"/>
                <path d="M865.02,92.249C863.779,92.249 862.616,92.561 861.711,93.132C859.637,94.44 859.167,96.783 860.424,99.562C861.443,102.037 863.241,103.507 865.772,103.941C868.315,104.378 871.204,103.729 873.824,102.604C874.163,100.249 873.216,97.68 870.99,95.064C869.341,93.106 867.075,92.249 865.02,92.249ZM857.364,112.461C852.748,112.461 848.18,111.217 845.06,108.409L845.532,107.884C848.576,110.624 853.432,112.015 858.847,111.699C863.993,111.4 868.702,109.63 871.442,106.964C872.563,105.873 873.299,104.685 873.65,103.426C871.029,104.486 868.18,105.07 865.652,104.637C862.866,104.159 860.889,102.545 859.775,99.841C858.384,96.763 858.965,94.028 861.334,92.535C863.989,90.862 868.641,91.179 871.529,94.608C874.066,97.588 874.777,100.155 874.595,102.256C877.147,101.046 879.371,99.423 880.654,97.99C885.854,91.869 886.839,83.666 883.219,76.592L883.847,76.271C887.6,83.604 886.58,92.104 881.186,98.455C879.783,100.02 877.302,101.801 874.476,103.073C874.078,105.014 872.935,106.496 871.935,107.47C868.713,110.604 863.003,112.461 857.364,112.461Z" style="fill:rgb(244,244,244);fill-rule:nonzero;"/>
            </g>
        </g>
    </g>
</svg>
