<?xml version="1.0" encoding="UTF-8" standalone="no"?>
<!DOCTYPE svg PUBLIC "-//W3C//DTD SVG 1.1//EN" "http://www.w3.org/Graphics/SVG/1.1/DTD/svg11.dtd">
<svg width="100%" height="100%" viewBox="0 0 165 212" version="1.1" xmlns="http://www.w3.org/2000/svg" xmlns:xlink="http://www.w3.org/1999/xlink" xml:space="preserve" xmlns:serif="http://www.serif.com/" style="fill-rule:evenodd;clip-rule:evenodd;stroke-linejoin:round;stroke-miterlimit:2;">
    <g id="Artboard1" transform="matrix(1,0,0,1,-1202.39,-59.3045)">
        <rect x="1202.39" y="59.304" width="164.823" height="211.054" style="fill:none;"/>
        <clipPath id="_clip1">
            <rect x="1202.39" y="59.304" width="164.823" height="211.054"/>
        </clipPath>
        <g clip-path="url(#_clip1)">
            <g transform="matrix(1,0,0,1,0.39027,0.304463)">
                <rect x="0" y="0" width="1920" height="1078" style="fill:white;fill-rule:nonzero;"/>
                <path d="M1356.88,138.699C1350.53,58.842 1281.68,68.738 1281.68,68.738C1272.93,68.987 1262.96,70.741 1254.97,74.779C1243.55,80.55 1233.32,91.111 1227.37,103.251C1224.93,108.236 1222.5,113.442 1220.72,118.766C1216.43,131.617 1213.89,146.041 1213.21,159.686C1213,164.018 1213.08,168.42 1212.94,172.757C1212.67,180.691 1212.7,188.603 1212.88,196.633L1357.92,196.633C1358.72,180.071 1358.63,160.682 1356.88,138.699Z" style="fill:rgb(87,20,0);fill-rule:nonzero;"/>
                <path d="M1308.19,224.152C1292.42,229.398 1273.03,220.753 1263.64,215.669C1264.36,233.36 1262.15,256.854 1246.78,263.88L1325.14,263.88C1312.12,257.857 1308.55,240.171 1308.19,224.152Z" style="fill:rgb(246,199,171);fill-rule:nonzero;"/>
                <path d="M1308.19,224.297C1307.85,208.611 1310.59,194.625 1310.59,194.625L1298.21,194.625L1261.74,196.883C1262.3,200.391 1263.3,207.478 1263.64,215.837C1273.03,220.921 1292.42,229.542 1308.19,224.297Z" style="fill:rgb(170,147,132);fill-rule:nonzero;"/>
                <path d="M1236.19,147.831C1236.19,184.289 1258.94,213.845 1287.02,213.845C1315.09,213.845 1337.85,184.289 1337.85,147.831C1337.85,111.373 1315.09,81.819 1287.02,81.819C1258.94,81.819 1236.19,111.373 1236.19,147.831Z" style="fill:rgb(246,199,171);fill-rule:nonzero;"/>
                <path d="M1223.13,168.94C1223.13,176.41 1228.91,182.467 1236.03,182.467C1243.15,182.467 1248.93,176.41 1248.93,168.94C1248.93,161.471 1243.15,155.414 1236.03,155.414C1228.91,155.414 1223.13,161.471 1223.13,168.94Z" style="fill:rgb(246,199,171);fill-rule:nonzero;"/>
                <path d="M1324.8,168.94C1324.8,176.41 1330.57,182.467 1337.7,182.467C1344.82,182.467 1350.59,176.41 1350.59,168.94C1350.59,161.471 1344.82,155.414 1337.7,155.414C1330.57,155.414 1324.8,161.471 1324.8,168.94Z" style="fill:rgb(246,199,171);fill-rule:nonzero;"/>
                <path d="M1290.9,171.038L1284.2,171.038C1283.43,171.038 1282.81,170.482 1282.78,169.722L1281.55,135.104C1281.52,134.324 1282.13,133.682 1282.91,133.654C1283.69,133.625 1284.34,134.353 1284.37,135.132L1285.56,168.529L1290.9,168.529C1291.68,168.529 1292.31,169.005 1292.31,169.784C1292.31,170.563 1291.68,171.038 1290.9,171.038Z" style="fill:rgb(239,142,121);fill-rule:nonzero;"/>
                <path d="M1286.14,185.917C1285.97,185.917 1285.8,185.913 1285.64,185.904C1280.12,185.61 1276.58,180.495 1276.44,180.278C1276,179.633 1276.17,178.755 1276.81,178.316C1277.46,177.879 1278.33,178.045 1278.77,178.688C1278.82,178.759 1281.71,182.877 1285.8,183.085C1288.44,183.211 1291.13,181.7 1293.78,178.571C1294.29,177.977 1295.18,177.903 1295.77,178.407C1296.37,178.912 1296.44,179.803 1295.93,180.397C1292.83,184.063 1289.53,185.917 1286.14,185.917Z" style="fill:rgb(239,142,121);fill-rule:nonzero;"/>
                <path d="M1264.07,151.891C1264.07,154.621 1265.54,156.833 1267.34,156.833C1269.14,156.833 1270.6,154.621 1270.6,151.891C1270.6,149.161 1269.14,146.949 1267.34,146.949C1265.54,146.949 1264.07,149.161 1264.07,151.891Z" style="fill:rgb(28,32,57);fill-rule:nonzero;"/>
                <path d="M1299.02,150.832C1299.02,153.562 1300.48,155.774 1302.29,155.774C1304.09,155.774 1305.55,153.562 1305.55,150.832C1305.55,148.102 1304.09,145.89 1302.29,145.89C1300.48,145.89 1299.02,148.102 1299.02,150.832Z" style="fill:rgb(28,32,57);fill-rule:nonzero;"/>
                <path d="M1283.33,76.876C1283.33,76.876 1231.68,77.935 1234.42,147.125C1234.42,147.125 1240.55,144.012 1251.03,141.173C1250.6,134.936 1250.78,115.942 1253.91,106.176C1253.91,106.176 1251.79,133.431 1253.37,140.418C1268.01,137.193 1292.31,134.58 1315.84,140.176C1316.53,128.846 1312.31,99.249 1312.31,99.249C1316.81,113.056 1317.86,130.942 1318.32,140.536C1323.61,142.014 1331.52,144.802 1337.03,147.125C1337.03,147.125 1342.51,78.995 1283.33,76.876Z" style="fill:rgb(87,20,0);fill-rule:nonzero;"/>
                <path d="M1239.27,173.245C1239.09,173.245 1238.91,173.094 1238.81,172.919C1237.6,170.729 1236.28,169.533 1234.89,169.533L1234.85,169.533C1232.41,169.533 1230.39,172.901 1230.37,172.934C1230.27,173.104 1230.09,173.225 1229.89,173.217C1229.7,173.207 1229.52,173.104 1229.44,172.926C1227.36,168.467 1227.07,164.773 1228.57,161.936C1230.62,158.078 1235.2,157.309 1235.4,157.277C1235.68,157.23 1235.96,157.43 1236,157.718C1236.05,158.007 1235.85,158.279 1235.56,158.325C1235.52,158.332 1231.3,159.055 1229.5,162.446C1228.26,164.798 1228.43,167.886 1230.02,171.638C1230.89,170.492 1232.69,168.542 1234.91,168.579C1236.7,168.608 1238.33,169.914 1239.74,172.458C1239.88,172.714 1239.79,173.036 1239.53,173.178C1239.45,173.223 1239.36,173.245 1239.27,173.245Z" style="fill:rgb(239,142,121);fill-rule:nonzero;"/>
                <path d="M1329.82,92.762C1329.82,92.762 1336.71,146.052 1327.1,178.007C1327.1,178.007 1353.24,137.002 1349.97,109.587L1329.82,92.762Z" style="fill:rgb(87,20,0);fill-rule:nonzero;"/>
                <path d="M1249.63,112.043C1249.63,112.043 1240.66,164.013 1261.67,196.633L1222.23,196.633C1222.23,196.633 1223.4,136.62 1225.59,122.832L1249.63,112.043Z" style="fill:rgb(87,20,0);fill-rule:nonzero;"/>
                <path d="M1335.47,176.774C1335.39,176.774 1335.3,176.753 1335.22,176.708C1334.96,176.566 1334.87,176.211 1335.01,175.955C1336.42,173.41 1338.05,172.042 1339.84,172.042L1339.9,172.042C1342.09,172.042 1343.87,174 1344.73,175.135C1346.31,171.38 1346.49,168.305 1345.24,165.953C1343.44,162.556 1339.23,161.855 1339.18,161.849C1338.9,161.803 1338.7,161.535 1338.75,161.246C1338.79,160.957 1339.06,160.763 1339.35,160.809C1339.54,160.84 1344.13,161.613 1346.17,165.472C1347.68,168.309 1347.39,172.009 1345.31,176.469C1345.22,176.646 1345.05,176.764 1344.86,176.773C1344.65,176.788 1344.47,176.685 1344.37,176.517C1344.35,176.483 1342.3,173.111 1339.85,173.168C1338.47,173.191 1337.15,174.313 1335.94,176.502C1335.84,176.676 1335.66,176.774 1335.47,176.774Z" style="fill:rgb(239,142,121);fill-rule:nonzero;"/>
                <path d="M1335.03,181.485C1335.03,183.435 1336.61,185.016 1338.56,185.016C1340.51,185.016 1342.09,183.435 1342.09,181.485C1342.09,179.536 1340.51,177.955 1338.56,177.955C1336.61,177.955 1335.03,179.536 1335.03,181.485Z" style="fill:white;fill-rule:nonzero;"/>
                <path d="M1258.25,131.786C1255.63,113.604 1266.73,81.959 1266.84,81.642L1267.84,81.995C1267.73,82.31 1256.71,113.712 1259.3,131.635L1258.25,131.786Z" style="fill:rgb(204,110,66);fill-rule:nonzero;"/>
                <path d="M1325.67,135.53L1324.62,135.42C1325.84,123.812 1319.07,101.727 1319,101.506L1320.01,101.192C1320.03,101.249 1321.76,106.863 1323.31,113.854C1325.4,123.266 1326.2,130.559 1325.67,135.53Z" style="fill:rgb(204,110,66);fill-rule:nonzero;"/>
                <path d="M1246.33,188.439C1241.5,180.658 1238.38,171.15 1237.06,160.179C1236.01,151.423 1236.1,141.719 1237.32,131.336C1239.4,113.672 1244.11,99.966 1244.16,99.831L1245.16,100.178C1245.11,100.313 1240.43,113.928 1238.37,131.481C1236.47,147.642 1236.47,170.545 1247.23,187.882L1246.33,188.439Z" style="fill:rgb(204,110,66);fill-rule:nonzero;"/>
                <path d="M1227.71,185.301C1224.99,181.046 1221.63,173.362 1221.13,160.921C1220.83,153.5 1221.7,147.807 1221.71,147.75L1222.75,147.912C1222.72,148.136 1219.39,170.343 1228.6,184.729L1227.71,185.301Z" style="fill:rgb(204,110,66);fill-rule:nonzero;"/>
                <path d="M1339.79,141.359C1339.79,141.119 1339.68,117.155 1336.66,106.914L1337.67,106.614C1340.74,117.001 1340.85,140.366 1340.85,141.356L1339.79,141.359Z" style="fill:rgb(204,110,66);fill-rule:nonzero;"/>
            </g>
        </g>
    </g>
</svg>
